<svg clip-rule="evenodd" fill-rule="evenodd" stroke-linejoin="round" stroke-miterlimit="2" viewBox="0 0 100 25" xmlns="http://www.w3.org/2000/svg"><g fill="#1e1d1d" fill-rule="nonzero"><path d="m130.826 60.939 1.294 6.3c.292 1.565.613 3.256.872 5.013h.1c.291-1.757.776-3.479 1.131-4.983l1.68-6.326h3.879l1.584 6.107c.452 1.755.873 3.445 1.165 5.2h.064c.226-1.724.55-3.479.938-5.233l1.326-6.076h4.814l-4.848 15.316h-4.589l-1.491-5.357c-.433-1.578-.779-3.178-1.034-4.794h-.064c-.235 1.606-.569 3.197-1 4.762l-1.582 5.386h-4.623l-4.622-15.316z" transform="translate(-125.816 -54.017)"/><path d="m202.253 72c-.033 1.239.053 2.478.258 3.7h-4.428l-.291-1.533h-.1c-1.155 1.266-2.814 1.955-4.526 1.879-.11.008-.22.011-.33.011-2.596 0-4.741-2.115-4.777-4.711 0-3.978 3.686-5.858 9.277-5.858v-.188c0-.846-.452-2.005-2.876-2.005-1.529.014-3.03.413-4.364 1.159l-.906-3.071c1.908-.946 4.016-1.42 6.146-1.383 5.268 0 6.917 3.007 6.917 6.64zm-4.753-3.546c-2.585 0-4.589.6-4.589 2.415-.001.029-.002.058-.002.087 0 .954.785 1.74 1.74 1.74.067 0 .135-.004.202-.012 1.131.008 2.154-.694 2.553-1.753.067-.266.101-.54.1-.814z" transform="translate(-163.173 -53.453)"/><path d="m59.509 0h4.913v22.238h-4.913z"/><path d="m308.475 72c-.033 1.239.053 2.478.258 3.7h-4.433l-.29-1.533h-.1c-1.154 1.266-2.813 1.955-4.524 1.879-.111.008-.222.012-.332.012-2.597 0-4.742-2.116-4.778-4.712 0-3.978 3.688-5.858 9.277-5.858v-.188c0-.846-.451-2.005-2.875-2.005-1.529.014-3.03.413-4.365 1.159l-.9-3.071c1.908-.946 4.016-1.42 6.145-1.383 5.27 0 6.917 3.007 6.917 6.64zm-4.753-3.541c-2.583 0-4.587.6-4.587 2.415-.002.03-.002.059-.002.089 0 .953.784 1.738 1.738 1.738.067 0 .135-.004.202-.012 1.132.007 2.154-.694 2.554-1.753.067-.266.1-.54.1-.814z" transform="translate(-226.921 -53.453)"/><path d="m233.686 61.123 2.36 6.112c.26.709.583 1.648.776 2.307h.13c.2-.685.451-1.6.679-2.334l1.971-6.085h5.237l-3.684 8.166c-2.263 4.943-3.781 6.894-5.561 8.14-1.401.962-3.026 1.547-4.719 1.7l-1.067-3.246c.735-.134 1.452-.356 2.134-.66.795-.341 1.494-.873 2.036-1.547.142-.155.233-.35.259-.558-.008-.224-.075-.443-.194-.633l-5.819-11.36z" transform="translate(-187.276 -54.127)"/><path d="m339.6 61.123 2.361 6.112c.258.709.582 1.648.774 2.307h.13c.2-.685.454-1.6.68-2.334l1.971-6.085h5.236l-3.684 8.166c-2.262 4.943-3.782 6.894-5.561 8.14-1.401.962-3.026 1.547-4.718 1.7l-1.066-3.246c.735-.134 1.451-.356 2.133-.66.795-.341 1.495-.873 2.037-1.547.142-.155.233-.35.259-.558-.009-.225-.078-.444-.2-.633l-5.818-11.36z" transform="translate(-250.842 -54.127)"/></g></svg>